# xmcd
#
# Track frame offsets: 
#        150
#        21897
#        44204
#        69423
#        86692
#        103725
#        120358
#        136289
#        155343
#        171985
#        191908
#
# Disc length: 2750 seconds
#
# Revision: 0
# Processed by: cddbd v1.5.2PL0 Copyright (c) Steve Scherf et al.
# Submitted via: ExactAudioCopy v1.0b2
#
DISCID=990abc0b
DTITLE=Cliff Stevens - Feelin' The Blues
DYEAR=2013
DGENRE=Blues
TTITLE0=Why You So Mean To Me
TTITLE1=That's What Love Will Make
TTITLE2=Got To Be Some Changes Me
TTITLE3=I Get Evil
TTITLE4=Finger Express
TTITLE5=Evenin'
TTITLE6=Don't Walk Away
TTITLE7=Since I Met You
TTITLE8=Blinded By The Sun
TTITLE9=Don't Do Me No More
TTITLE10=I Want You to Tell Me
EXTD=
EXTT0=
EXTT1=
EXTT2=
EXTT3=
EXTT4=
EXTT5=
EXTT6=
EXTT7=
EXTT8=
EXTT9=
EXTT10=
PLAYORDER=
